# xmcd
#
# Track frame offsets: 
#        150
#        16892
#        33403
#        46842
#        58833
#        72959
#        88865
#        110065
#        126088
#        144776
#        163580
#        181325
#        195564
#        209298
#        217738
#
# Disc length: 3159 seconds
#
# Revision: 2
# Processed by: cddbd v1.5.2PL0 Copyright (c) Steve Scherf et al.
# Submitted via: ExactAudioCopy v0.95a5
#
DISCID=cf0c550f
DTITLE=Buddahgrass Boys - Black Ice
DYEAR=1900
DGENRE=Country
TTITLE0=Black Ice
TTITLE1=Here Comes Mama
TTITLE2=Lighthouse Ghost
TTITLE3=Back To The Here And Now
TTITLE4=True Love Ain't Easy
TTITLE5=Philosophical Attitude
TTITLE6=Lucky Star
TTITLE7=Lil' Urban Ballad
TTITLE8=Cowboy To The Bone
TTITLE9=Wampum Belt
TTITLE10=Lone Wolf
TTITLE11=Friday Night
TTITLE12=Too Much Twang
TTITLE13=Sawtooth Rag
TTITLE14=Old Paint
EXTD=
EXTT0=
EXTT1=
EXTT2=
EXTT3=
EXTT4=
EXTT5=
EXTT6=
EXTT7=
EXTT8=
EXTT9=
EXTT10=
EXTT11=
EXTT12=
EXTT13=
EXTT14=
PLAYORDER=
